<?xml version="1.0" encoding="UTF-8" standalone="no"?>
<svg width="64px" height="32px" viewBox="0 0 64 32" version="1.1" xmlns="http://www.w3.org/2000/svg" xmlns:xlink="http://www.w3.org/1999/xlink" xmlns:sketch="http://www.bohemiancoding.com/sketch/ns">
    <!-- Generator: Sketch 3.5.1 (25234) - http://www.bohemiancoding.com/sketch -->
    <title>Group 2</title>
    <desc>Created with Sketch.</desc>
    <defs></defs>
    <g id="Page-1" stroke="none" stroke-width="1" fill="none" fill-rule="evenodd" sketch:type="MSPage">
        <g id="Group-2" sketch:type="MSLayerGroup">
            <g id="facebook_darkgray_2" transform="translate(32.000000, 0.000000)" sketch:type="MSShapeGroup">
                <g id="Page-1">
                    <g id="facebook_gray">
                        <g id="Page-1">
                            <g id="1455251120_square-facebook">
                                <g id="Group">
                                    <path d="M30,32 L2,32 C0.896,32 0,31.104 0,30 L0,2 C0,0.896 0.896,0 2,0 L30,0 C31.104,0 32,0.896 32,2 L32,30 C32,31.104 31.104,32 30,32 L30,32 L30,32 Z" id="Shape" fill="#666666"></path>
                                    <path d="M22,32 L22,20 L26,20 L27,15 L22,15 L22,13 C22,11 23.002,10 25,10 L27,10 L27,5 L23,5 C19.325,5 17,7.881 17,12 L17,15 L13,15 L13,20 L17,20 L17,32 L22,32 L22,32 L22,32 L22,32 Z" id="f" fill="#FFFFFF"></path>
                                </g>
                            </g>
                        </g>
                    </g>
                </g>
            </g>
            <g id="facebook_gray" sketch:type="MSShapeGroup">
                <g id="Page-1">
                    <g id="1455251120_square-facebook">
                        <g id="Group">
                            <path d="M30,32 L2,32 C0.896,32 0,31.104 0,30 L0,2 C0,0.896 0.896,0 2,0 L30,0 C31.104,0 32,0.896 32,2 L32,30 C32,31.104 31.104,32 30,32 L30,32 Z" id="Shape" fill="#999999"></path>
                            <path d="M22,32 L22,20 L26,20 L27,15 L22,15 L22,13 C22,11 23.002,10 25,10 L27,10 L27,5 L23,5 C19.325,5 17,7.881 17,12 L17,15 L13,15 L13,20 L17,20 L17,32 L22,32 L22,32 L22,32 Z" id="f" fill="#FFFFFF"></path>
                        </g>
                    </g>
                </g>
            </g>
        </g>
    </g>
</svg>