<?xml version="1.0" encoding="UTF-8" standalone="no"?>
<svg width="207px" height="207px" viewBox="0 0 207 207" version="1.1" xmlns="http://www.w3.org/2000/svg" xmlns:xlink="http://www.w3.org/1999/xlink" xmlns:sketch="http://www.bohemiancoding.com/sketch/ns">
    <!-- Generator: Sketch 3.2.2 (9983) - http://www.bohemiancoding.com/sketch -->
    <title>noun_6402 + noun_6402 2</title>
    <desc>Created with Sketch.</desc>
    <defs></defs>
    <g id="Page-1" stroke="none" stroke-width="1" fill="none" fill-rule="evenodd" sketch:type="MSPage">
        <g id="noun_6402-+-noun_6402-2" sketch:type="MSLayerGroup" fill="#FFFFFF">
            <g id="noun_6402" transform="translate(103.500000, 103.500000) rotate(-90.000000) translate(-103.500000, -103.500000) translate(0.000000, 78.000000)" sketch:type="MSShapeGroup">
                <path d="M22.68016,50.3937935 C10.15386,50.3937935 0,39.2499565 0,25.5 C0,11.7550217 10.15386,0.608695652 22.68016,0.608695652 L183.42213,0.608695652 C195.94385,0.608695652 206.1,11.7550217 206.1,25.5 C206.1,39.2499565 195.94385,50.3937935 183.42213,50.3937935 L22.68016,50.3937935 Z" id="Shape"></path>
            </g>
            <g id="noun_6402-2" transform="translate(103.500000, 103.500000) rotate(-180.000000) translate(-103.500000, -103.500000) translate(0.000000, 78.000000)" sketch:type="MSShapeGroup">
                <path d="M22.68016,50.3937935 C10.15386,50.3937935 0,39.2499565 0,25.5 C0,11.7550217 10.15386,0.608695652 22.68016,0.608695652 L183.42213,0.608695652 C195.94385,0.608695652 206.1,11.7550217 206.1,25.5 C206.1,39.2499565 195.94385,50.3937935 183.42213,50.3937935 L22.68016,50.3937935 Z" id="Shape"></path>
            </g>
        </g>
    </g>
</svg>