<?xml version="1.0" encoding="UTF-8" standalone="no"?>
<svg width="768px" height="321px" viewBox="0 0 768 321" version="1.1" xmlns="http://www.w3.org/2000/svg" xmlns:xlink="http://www.w3.org/1999/xlink" xmlns:sketch="http://www.bohemiancoding.com/sketch/ns">
    <!-- Generator: Sketch 3.5.1 (25234) - http://www.bohemiancoding.com/sketch -->
    <title>Group</title>
    <desc>Created with Sketch.</desc>
    <defs></defs>
    <g id="Page-1" stroke="none" stroke-width="1" fill="none" fill-rule="evenodd" sketch:type="MSPage">
        <g id="Group" sketch:type="MSLayerGroup">
            <g id="share" fill="#999999" sketch:type="MSShapeGroup">
                <g id="Page-1">
                    <g id="1453957898_icon-share">
                        <path d="M288,281.9 L38.4,281.9 L38.4,102.2 L95.9,102.2 C95.9,102.2 110,82.5 138.6,64 L19.2,64 C8.6,64 0,72.5 0,83.1 L0,301 C0,311.5 8.6,320.1 19.2,320.1 L307.2,320.1 C317.8,320.1 326.4,311.6 326.4,301 L326.4,192 L288,223.4 L288,281.9 L288,281.9 L288,281.9 Z M256,128 L256,191.9 L384,96.4 L256,0 L256,59.7 C101.2,59.7 96,224 96,224 C139.8,152.5 172,128 256,128 L256,128 L256,128 Z" id="Shape"></path>
                    </g>
                </g>
            </g>
            <g id="share_darkgray" transform="translate(384.000000, 0.000000)" fill="#666666" sketch:type="MSShapeGroup">
                <g id="Page-1">
                    <g id="share_darkgray">
                        <g id="Page-1">
                            <g id="share">
                                <g id="Page-1">
                                    <g id="1453957898_icon-share">
                                        <path d="M288,281.9 L38.4,281.9 L38.4,102.2 L95.9,102.2 C95.9,102.2 110,82.5 138.6,64 L19.2,64 C8.6,64 0,72.5 0,83.1 L0,301 C0,311.5 8.6,320.1 19.2,320.1 L307.2,320.1 C317.8,320.1 326.4,311.6 326.4,301 L326.4,192 L288,223.4 L288,281.9 L288,281.9 L288,281.9 L288,281.9 L288,281.9 Z M256,128 L256,191.9 L384,96.4 L256,0 L256,59.7 C101.2,59.7 96,224 96,224 C139.8,152.5 172,128 256,128 L256,128 L256,128 L256,128 L256,128 Z" id="Shape"></path>
                                    </g>
                                </g>
                            </g>
                        </g>
                    </g>
                </g>
            </g>
        </g>
    </g>
</svg>