<?xml version="1.0" encoding="UTF-8" standalone="no"?>
<svg width="64px" height="28px" viewBox="0 0 64 28" version="1.1" xmlns="http://www.w3.org/2000/svg" xmlns:xlink="http://www.w3.org/1999/xlink" xmlns:sketch="http://www.bohemiancoding.com/sketch/ns">
    <!-- Generator: Sketch 3.5.1 (25234) - http://www.bohemiancoding.com/sketch -->
    <title>Group</title>
    <desc>Created with Sketch.</desc>
    <defs></defs>
    <g id="Page-1" stroke="none" stroke-width="1" fill="none" fill-rule="evenodd" sketch:type="MSPage">
        <g id="Group" sketch:type="MSLayerGroup">
            <g id="twitter_gray" fill="#999999" sketch:type="MSShapeGroup">
                <g id="Page-1">
                    <g id="Flat_copy">
                        <path d="M20.046,1.071 C17.156,2.123 15.33,4.835 15.537,7.803 L15.607,8.948 L14.451,8.808 C10.244,8.271 6.567,6.448 3.445,3.385 L1.919,1.866 L1.526,2.988 C0.694,5.489 1.226,8.131 2.959,9.908 C3.884,10.89 3.675,11.03 2.081,10.445 C1.526,10.259 1.04,10.118 0.994,10.188 C0.833,10.352 1.387,12.479 1.826,13.321 C2.427,14.491 3.652,15.635 4.994,16.314 L6.127,16.851 L4.786,16.874 C3.492,16.874 3.445,16.897 3.584,17.389 C4.046,18.908 5.873,20.522 7.907,21.223 L9.34,21.713 L8.092,22.461 C6.243,23.538 4.069,24.145 1.895,24.19 C0.855,24.213 0,24.307 0,24.378 C0,24.611 2.821,25.919 4.462,26.435 C9.387,27.954 15.237,27.299 19.63,24.705 C22.752,22.858 25.872,19.188 27.33,15.634 C28.117,13.742 28.902,10.281 28.902,8.623 C28.902,7.547 28.972,7.407 30.266,6.122 C31.03,5.374 31.746,4.556 31.885,4.322 C32.117,3.877 32.092,3.877 30.914,4.275 C28.949,4.977 28.671,4.883 29.643,3.831 C30.359,3.083 31.215,1.727 31.215,1.33 C31.215,1.26 30.869,1.376 30.475,1.587 C30.059,1.819 29.134,2.17 28.44,2.38 L27.192,2.778 L26.059,2.006 C25.434,1.586 24.557,1.118 24.094,0.978 C22.914,0.651 21.11,0.697 20.046,1.071 L20.046,1.071 L20.046,1.071 Z" id="Shape"></path>
                    </g>
                </g>
            </g>
            <g id="twitter_darkgray" transform="translate(32.000000, 0.000000)" fill="#666666" sketch:type="MSShapeGroup">
                <g id="Page-1">
                    <g id="twitter_darkgray">
                        <g id="Page-1">
                            <g id="twitter_gray">
                                <g id="Page-1">
                                    <g id="Flat_copy">
                                        <path d="M20.046,1.071 C17.156,2.123 15.33,4.835 15.537,7.803 L15.607,8.948 L14.451,8.808 C10.244,8.271 6.567,6.448 3.445,3.385 L1.919,1.866 L1.526,2.988 C0.694,5.489 1.226,8.131 2.959,9.908 C3.884,10.89 3.675,11.03 2.081,10.445 C1.526,10.259 1.04,10.118 0.994,10.188 C0.833,10.352 1.387,12.479 1.826,13.321 C2.427,14.491 3.652,15.635 4.994,16.314 L6.127,16.851 L4.786,16.874 C3.492,16.874 3.445,16.897 3.584,17.389 C4.046,18.908 5.873,20.522 7.907,21.223 L9.34,21.713 L8.092,22.461 C6.243,23.538 4.069,24.145 1.895,24.19 C0.855,24.213 0,24.307 0,24.378 C0,24.611 2.821,25.919 4.462,26.435 C9.387,27.954 15.237,27.299 19.63,24.705 C22.752,22.858 25.872,19.188 27.33,15.634 C28.117,13.742 28.902,10.281 28.902,8.623 C28.902,7.547 28.972,7.407 30.266,6.122 C31.03,5.374 31.746,4.556 31.885,4.322 C32.117,3.877 32.092,3.877 30.914,4.275 C28.949,4.977 28.671,4.883 29.643,3.831 C30.359,3.083 31.215,1.727 31.215,1.33 C31.215,1.26 30.869,1.376 30.475,1.587 C30.059,1.819 29.134,2.17 28.44,2.38 L27.192,2.778 L26.059,2.006 C25.434,1.586 24.557,1.118 24.094,0.978 C22.914,0.651 21.11,0.697 20.046,1.071 L20.046,1.071 L20.046,1.071 L20.046,1.071 L20.046,1.071 Z" id="Shape"></path>
                                    </g>
                                </g>
                            </g>
                        </g>
                    </g>
                </g>
            </g>
        </g>
    </g>
</svg>